<?xml version="1.0" encoding="UTF-8" standalone="no"?>
<svg
   width="16"
   height="16"
   fill="currentColor"
   class="bi bi-filetype-docx"
   viewBox="0 0 16 16"
   version="1.1"
   id="svg4308"
   sodipodi:docname="undefined.svg"
   inkscape:version="1.2.2 (b0a8486541, 2022-12-01)"
   xmlns:inkscape="http://www.inkscape.org/namespaces/inkscape"
   xmlns:sodipodi="http://sodipodi.sourceforge.net/DTD/sodipodi-0.dtd"
   xmlns="http://www.w3.org/2000/svg"
   xmlns:svg="http://www.w3.org/2000/svg">
  <defs
     id="defs4312" />
  <sodipodi:namedview
     id="namedview4310"
     pagecolor="#ffffff"
     bordercolor="#000000"
     borderopacity="0.25"
     inkscape:showpageshadow="2"
     inkscape:pageopacity="0.0"
     inkscape:pagecheckerboard="0"
     inkscape:deskcolor="#d1d1d1"
     showgrid="false"
     inkscape:zoom="26.3125"
     inkscape:cx="18.223278"
     inkscape:cy="15.638955"
     inkscape:window-width="2560"
     inkscape:window-height="1011"
     inkscape:window-x="0"
     inkscape:window-y="32"
     inkscape:window-maximized="1"
     inkscape:current-layer="svg4308"
     showguides="true">
    <sodipodi:guide
       position="21.814727,4.1805226"
       orientation="0,-1"
       id="guide4496"
       inkscape:locked="false" />
  </sodipodi:namedview>
  <path
     id="path4306"
     d="M 4 0 C 2.8954316 0 2 0.8954316 2 2 L 2 11 L 3 11 L 3 2 C 3 1.4477159 3.4477159 1 4 1 L 9.5 1 L 9.5 3 C 9.5 3.8284263 10.171574 4.5 11 4.5 L 13 4.5 L 13 11 L 14 11 L 14 4.5 L 9.5 0 L 4 0 z M 0.50585938 11.814453 L 0.50585938 14.388672 C 0.50585905 14.9422 0.56183366 15.34443 0.671875 15.595703 C 0.78282576 15.846976 0.95835338 15.972656 1.2011719 15.972656 C 1.4448998 15.972656 1.6223805 15.846976 1.7324219 15.595703 C 1.8424632 15.34443 1.8984375 14.9422 1.8984375 14.388672 L 1.8984375 11.814453 L 1.4960938 11.814453 L 1.4960938 14.589844 C 1.4960938 14.793776 1.469806 14.95378 1.4179688 15.070312 C 1.3661311 15.185023 1.2930246 15.242188 1.2011719 15.242188 C 1.1093192 15.242188 1.0381657 15.185023 0.98632812 15.070312 C 0.93449044 14.95378 0.90820312 14.793776 0.90820312 14.589844 L 0.90820312 11.814453 L 0.50585938 11.814453 z M 2.2070312 11.814453 L 2.2070312 15.892578 L 2.5605469 15.892578 L 2.5605469 12.929688 L 3.1308594 15.892578 L 3.5605469 15.892578 L 3.5605469 11.814453 L 3.2050781 11.814453 L 3.2050781 14.779297 L 2.6386719 11.814453 L 2.2070312 11.814453 z M 3.9121094 11.814453 L 3.9121094 15.892578 L 4.34375 15.892578 C 4.6766023 15.892578 4.9160813 15.734658 5.0625 15.416016 C 5.2089187 15.095552 5.28125 14.572474 5.28125 13.849609 C 5.28125 13.128566 5.2089187 12.60979 5.0625 12.292969 C 4.9160813 11.974326 4.6766023 11.814453 4.34375 11.814453 L 3.9121094 11.814453 z M 5.6367188 11.814453 L 5.6367188 15.892578 L 6.90625 15.892578 L 6.90625 15.183594 L 6.0390625 15.183594 L 6.0390625 14.115234 L 6.8242188 14.115234 L 6.8242188 13.404297 L 6.0390625 13.404297 L 6.0390625 12.525391 L 6.90625 12.525391 L 6.90625 11.814453 L 5.6367188 11.814453 z M 7.3378906 11.814453 L 7.3378906 15.892578 L 7.7402344 15.892578 L 7.7402344 14.115234 L 8.5292969 14.115234 L 8.5292969 13.404297 L 7.7402344 13.404297 L 7.7402344 12.525391 L 8.6074219 12.525391 L 8.6074219 11.814453 L 7.3378906 11.814453 z M 9.0058594 11.814453 L 9.0058594 12.525391 L 9.4121094 12.525391 L 9.4121094 15.183594 L 9.0058594 15.183594 L 9.0058594 15.892578 L 10.21875 15.892578 L 10.21875 15.183594 L 9.8144531 15.183594 L 9.8144531 12.525391 L 10.21875 12.525391 L 10.21875 11.814453 L 9.0058594 11.814453 z M 10.615234 11.814453 L 10.615234 15.892578 L 10.970703 15.892578 L 10.970703 12.929688 L 11.541016 15.892578 L 11.970703 15.892578 L 11.970703 11.814453 L 11.615234 11.814453 L 11.615234 14.779297 L 11.048828 11.814453 L 10.615234 11.814453 z M 12.365234 11.814453 L 12.365234 15.892578 L 13.632812 15.892578 L 13.632812 15.183594 L 12.767578 15.183594 L 12.767578 14.115234 L 13.550781 14.115234 L 13.550781 13.404297 L 12.767578 13.404297 L 12.767578 12.525391 L 13.632812 12.525391 L 13.632812 11.814453 L 12.365234 11.814453 z M 14.003906 11.814453 L 14.003906 15.892578 L 14.435547 15.892578 C 14.768399 15.892578 15.007878 15.734658 15.154297 15.416016 C 15.300715 15.095552 15.375 14.572474 15.375 13.849609 C 15.375 13.128566 15.300715 12.60979 15.154297 12.292969 C 15.007878 11.974326 14.768399 11.814453 14.435547 11.814453 L 14.003906 11.814453 z M 4.3144531 12.541016 L 4.4238281 12.541016 C 4.5820694 12.541016 4.6944207 12.641375 4.7617188 12.839844 C 4.8290167 13.038313 4.8632812 13.374377 4.8632812 13.849609 C 4.8632812 14.328484 4.8290167 14.668851 4.7617188 14.869141 C 4.6944207 15.06761 4.5820694 15.166016 4.4238281 15.166016 L 4.3144531 15.166016 L 4.3144531 12.541016 z M 14.40625 12.541016 L 14.515625 12.541016 C 14.673866 12.541016 14.786218 12.641375 14.853516 12.839844 C 14.920814 13.038313 14.955078 13.374377 14.955078 13.849609 C 14.955078 14.328484 14.920814 14.668851 14.853516 14.869141 C 14.786218 15.06761 14.673866 15.166016 14.515625 15.166016 L 14.40625 15.166016 L 14.40625 12.541016 z " />
</svg>
