<svg xmlns="http://www.w3.org/2000/svg" width="16" height="16" fill="currentColor" class="bi bi-moon-stars" viewBox="0 0 16 16">
  <path d="M6 .278a.77.77 0 0 1 .08.858A7.2 7.2 0 0 0 5.2 4.6C5.2 8.6 8.4 11.8 12.4 11.8c1.24 0 2.41-.31 3.42-.86a.77.77 0 0 1 1.04.95A8.5 8.5 0 1 1 6 .278"/>
  <path d="M12.5 0a.5.5 0 0 1 .5.5V2a.5.5 0 0 1-1 0V.5a.5.5 0 0 1 .5-.5m3 1.5a.5.5 0 0 1-.5.5H13.5a.5.5 0 0 1 0-1H15a.5.5 0 0 1 .5.5M12.5 3a.5.5 0 0 1 .5.5V5a.5.5 0 0 1-1 0V3.5a.5.5 0 0 1 .5-.5m-1.5-1.5a.5.5 0 0 1-.5.5H9a.5.5 0 0 1 0-1h1.5a.5.5 0 0 1 .5.5"/>
</svg>
