<svg xmlns="http://www.w3.org/2000/svg" width="16" height="16" fill="currentColor" class="bi bi-sun" viewBox="0 0 16 16">
  <path d="M8 12a4 4 0 1 0 0-8 4 4 0 0 0 0 8m0 1A5 5 0 1 1 8 3a5 5 0 0 1 0 10"/>
  <path d="M8 0a.5.5 0 0 1 .5.5v2a.5.5 0 0 1-1 0v-2A.5.5 0 0 1 8 0m0 13.5a.5.5 0 0 1 .5.5v2a.5.5 0 0 1-1 0v-2a.5.5 0 0 1 .5-.5M16 8a.5.5 0 0 1-.5.5h-2a.5.5 0 0 1 0-1h2A.5.5 0 0 1 16 8M2.5 8a.5.5 0 0 1-.5.5h-2a.5.5 0 0 1 0-1h2a.5.5 0 0 1 .5.5M12.036 3.964a.5.5 0 0 1 .707 0l1.414 1.414a.5.5 0 1 1-.707.707l-1.414-1.414a.5.5 0 0 1 0-.707M1.843 14.157a.5.5 0 0 1 0-.707l1.414-1.414a.5.5 0 0 1 .707.707l-1.414 1.414a.5.5 0 0 1-.707 0M14.157 14.157a.5.5 0 0 1-.707 0l-1.414-1.414a.5.5 0 1 1 .707-.707l1.414 1.414a.5.5 0 0 1 0 .707M3.964 3.964a.5.5 0 0 1 0 .707L2.55 6.086a.5.5 0 1 1-.707-.707L3.257 3.964a.5.5 0 0 1 .707 0"/>
</svg>
